<svg width="180" height="45" viewBox="0 0 180 45" fill="none" xmlns="http://www.w3.org/2000/svg">
<path d="M0.0557098 25.5627V4.05211H9.0637C10.0745 4.05211 10.9961 4.26419 11.8285 4.68834C12.6808 5.09228 13.4141 5.64775 14.0285 6.35465C14.6429 7.04139 15.1186 7.81898 15.4555 8.6875C15.7924 9.55601 15.9609 10.4447 15.9609 11.3536C15.9609 12.5857 15.6735 13.7571 15.0988 14.868C14.5438 15.9789 13.7609 16.8878 12.7501 17.5947C11.7592 18.2814 10.5799 18.6248 9.21235 18.6248H4.93132V25.5627H0.0557098ZM4.93132 14.2924H8.91505C9.29164 14.2924 9.63845 14.1813 9.95558 13.9591C10.2727 13.737 10.5303 13.4037 10.7285 12.9593C10.9268 12.515 11.0258 11.9696 11.0258 11.3233C11.0258 10.6568 10.9069 10.1114 10.6691 9.68728C10.4511 9.24292 10.1637 8.91979 9.80693 8.71779C9.47002 8.5158 9.11326 8.41483 8.73668 8.41483H4.93132V14.2924ZM20.719 32.5309C20.2829 32.5309 19.8172 32.4804 19.3217 32.3795C18.846 32.2785 18.2812 32.127 17.6271 31.925L18.3109 27.9259C18.6875 28.0673 19.0343 28.1783 19.3514 28.2591C19.6884 28.3399 19.9857 28.3803 20.2433 28.3803C20.7586 28.3803 21.1947 28.2187 21.5514 27.8956C21.9082 27.5926 22.1757 27.1179 22.3541 26.4716L22.6217 25.5324L16.6163 9.65699H21.5217L25.1487 20.5941L28.2405 9.65699H32.7296L26.873 27.6532C26.5558 28.6631 26.0901 29.5215 25.4757 30.2284C24.8613 30.9555 24.1478 31.5211 23.3352 31.925C22.5226 32.329 21.6505 32.5309 20.719 32.5309ZM42.5926 25.8657C39.8773 25.8657 37.8062 25.0578 36.3792 23.442C34.972 21.8059 34.2684 19.3721 34.2684 16.1405C34.2684 14.2419 34.4369 12.6361 34.7738 11.3233C35.1107 9.99025 35.6161 8.88949 36.29 8.02097C36.9638 7.13228 37.8161 6.42533 38.8467 5.90021C39.8773 5.35487 41.0863 4.9408 42.4737 4.65804L49.1927 3.11292L49.2522 6.93029L42.5034 8.59661C41.6115 8.83898 40.8187 9.19246 40.1251 9.65699C39.4314 10.1014 38.8665 10.677 38.4305 11.3839C38.0143 12.0908 37.7566 12.9694 37.6575 14.0197C38.2917 13.0704 39.1241 12.313 40.1548 11.7475C41.1854 11.1819 42.4538 10.8991 43.9601 10.8991C45.3079 10.8991 46.5069 11.2021 47.5576 11.808C48.6079 12.414 49.4306 13.2522 50.0252 14.3227C50.6197 15.373 50.917 16.5949 50.917 17.9886C50.917 19.4832 50.5998 20.8264 49.9657 22.018C49.3312 23.2097 48.39 24.1489 47.1414 24.8356C45.9123 25.5223 44.3962 25.8657 42.5926 25.8657ZM42.5926 21.7756C43.643 21.7756 44.4754 21.4525 45.0901 20.8061C45.7242 20.1598 46.0414 19.3014 46.0414 18.2309C46.0414 17.2211 45.7242 16.3929 45.0901 15.7466C44.4754 15.0801 43.643 14.7468 42.5926 14.7468C41.9385 14.7468 41.3539 14.8882 40.8386 15.171C40.3233 15.4537 39.9071 15.8577 39.5899 16.3828C39.2926 16.908 39.144 17.524 39.144 18.2309C39.144 18.9378 39.2827 19.564 39.5602 20.1093C39.8575 20.6345 40.2638 21.0485 40.7791 21.3515C41.2944 21.6342 41.8989 21.7756 42.5926 21.7756ZM55.2097 32.5309C54.7735 32.5309 54.308 32.4804 53.8124 32.3795C53.3367 32.2785 52.7719 32.127 52.1178 31.925L52.8016 27.9259C53.1783 28.0673 53.5249 28.1783 53.8421 28.2591C54.1789 28.3399 54.4762 28.3803 54.734 28.3803C55.2492 28.3803 55.6853 28.2187 56.0421 27.8956C56.3988 27.5926 56.6664 27.1179 56.8448 26.4716L57.1124 25.5324L51.107 9.65699H56.0124L59.6393 20.5941L62.7312 9.65699H67.2203L61.3636 27.6532C61.0464 28.6631 60.5809 29.5215 59.9664 30.2284C59.3518 30.9555 58.6383 31.5211 57.8259 31.925C57.0134 32.329 56.141 32.5309 55.2097 32.5309ZM76.0546 25.8657C74.7265 25.8657 73.5476 25.6435 72.5168 25.1992C71.486 24.7548 70.6044 24.1489 69.8709 23.3814C69.1574 22.6139 68.6125 21.7353 68.2358 20.7456C67.859 19.7559 67.6709 18.7056 67.6709 17.5947C67.6709 16.1405 67.9979 14.7872 68.652 13.535C69.326 12.2827 70.2871 11.2728 71.5357 10.5053C72.7844 9.73779 74.2908 9.35402 76.0546 9.35402C77.8383 9.35402 79.3448 9.74788 80.5734 10.5356C81.8221 11.3031 82.7534 12.313 83.368 13.5653L78.7302 14.9892C78.4329 14.5044 78.0465 14.1308 77.5708 13.8682C77.1151 13.6056 76.5995 13.4744 76.0249 13.4744C75.3708 13.4744 74.7762 13.6461 74.2411 13.9894C73.7259 14.3328 73.3097 14.8074 72.9925 15.4133C72.6952 16.0193 72.5465 16.7464 72.5465 17.5947C72.5465 18.4228 72.7049 19.1499 73.0222 19.7761C73.3395 20.4022 73.7557 20.897 74.2708 21.2606C74.786 21.6039 75.3708 21.7756 76.0249 21.7756C76.4211 21.7756 76.7881 21.715 77.1248 21.5939C77.4816 21.4525 77.7989 21.2606 78.0762 21.0182C78.3735 20.7759 78.6016 20.5032 78.76 20.2002L83.3977 21.6545C83.021 22.4624 82.4761 23.1895 81.7626 23.8358C81.0691 24.462 80.2464 24.9568 79.2951 25.3203C78.3437 25.6839 77.2637 25.8657 76.0546 25.8657Z" fill="black"/>
<path d="M0 42.6047V37.1371H1.63511V39.1158H3.4644V37.1371H5.09951V42.6047H3.4644V40.4906H1.63511V42.6047H0ZM6.06256 40.9696C6.06256 40.6086 6.16136 40.2927 6.35892 40.0219C6.55653 39.7511 6.82901 39.5394 7.17648 39.3866C7.52394 39.227 7.9225 39.1471 8.37215 39.1471C8.5902 39.1471 8.80481 39.1679 9.01598 39.2096C9.2272 39.2443 9.41115 39.2964 9.56783 39.3658V39.1263C9.56783 38.8277 9.47929 38.5986 9.30212 38.4389C9.125 38.2792 8.85591 38.1994 8.49479 38.1994C8.19503 38.1994 7.91228 38.2515 7.64657 38.3556C7.38769 38.4597 7.11177 38.609 6.8188 38.8034L6.32826 37.7411C6.68255 37.5051 7.05045 37.328 7.43196 37.21C7.8203 37.092 8.22908 37.033 8.6583 37.033C9.46224 37.033 10.0856 37.2308 10.5285 37.6266C10.9781 38.0154 11.2029 38.5813 11.2029 39.3241V40.7509C11.2029 40.9176 11.2268 41.0356 11.2745 41.105C11.329 41.1675 11.421 41.2057 11.5504 41.2196V42.6047C11.4142 42.6325 11.2847 42.6533 11.1621 42.6672C11.0463 42.6811 10.9441 42.688 10.8555 42.688C10.5489 42.688 10.3139 42.6255 10.1503 42.5006C9.99366 42.3756 9.89485 42.2055 9.85398 41.9902L9.82332 41.7507C9.58488 42.0631 9.29873 42.3027 8.96488 42.4693C8.63786 42.629 8.29384 42.7088 7.93272 42.7088C7.57847 42.7088 7.25823 42.6325 6.97209 42.4797C6.69277 42.327 6.47133 42.1187 6.30782 41.8549C6.14431 41.591 6.06256 41.2959 6.06256 40.9696ZM9.31234 41.1779C9.38732 41.1154 9.44863 41.046 9.49629 40.9696C9.544 40.8933 9.56783 40.8204 9.56783 40.7509V40.2614C9.43159 40.2059 9.27829 40.1643 9.10795 40.1365C8.94444 40.1018 8.79115 40.0844 8.64808 40.0844C8.34832 40.0844 8.09967 40.1538 7.90206 40.2927C7.7045 40.4246 7.60569 40.6017 7.60569 40.8238C7.60569 40.9488 7.63979 41.0634 7.70789 41.1675C7.77603 41.2716 7.86801 41.355 7.98381 41.4174C8.10645 41.4799 8.24952 41.5112 8.41303 41.5112C8.57654 41.5112 8.74005 41.4799 8.90357 41.4174C9.06708 41.355 9.20337 41.2751 9.31234 41.1779ZM13.1995 45C13.0496 45 12.8895 44.9827 12.7191 44.948C12.5556 44.9133 12.3615 44.8612 12.1366 44.7917L12.3717 43.417C12.5011 43.4656 12.6203 43.5038 12.7294 43.5316C12.8452 43.5594 12.9474 43.5732 13.0359 43.5732C13.2131 43.5732 13.363 43.5177 13.4856 43.4066C13.6082 43.3025 13.7002 43.1393 13.7615 42.9171L13.8535 42.5943L11.7892 37.1371H13.4754L14.7222 40.8967L15.785 37.1371H17.3281L15.3149 43.3233C15.2059 43.6704 15.0458 43.9655 14.8346 44.2085C14.6234 44.4585 14.3781 44.6529 14.0988 44.7917C13.8195 44.9306 13.5197 45 13.1995 45ZM21.0957 42.6047V40.7613C20.8981 40.8516 20.7005 40.9176 20.503 40.9592C20.3054 40.9939 20.0738 41.0113 19.8081 41.0113C19.2562 41.0113 18.8133 40.8585 18.4795 40.553C18.1525 40.2406 17.989 39.7893 17.989 39.1992V37.1371H19.6241V38.9805C19.6241 39.2374 19.682 39.4317 19.7978 39.5637C19.9136 39.6886 20.0942 39.7511 20.3395 39.7511C20.4689 39.7511 20.5983 39.7407 20.7278 39.7199C20.8641 39.6921 20.9867 39.6504 21.0957 39.5949V37.1371H22.7308V42.6047H21.0957ZM24.0433 42.6047V37.1371H25.6784V39.1158H27.5077V37.1371H29.1428V42.6047H27.5077V40.4906H25.6784V42.6047H24.0433ZM32.998 42.7088C32.5415 42.7088 32.1327 42.6325 31.7717 42.4797C31.4174 42.327 31.1176 42.1187 30.8723 41.8549C30.6271 41.591 30.4397 41.289 30.3103 40.9488C30.1876 40.6086 30.1263 40.251 30.1263 39.8761C30.1263 39.4942 30.1876 39.1332 30.3103 38.793C30.4397 38.4528 30.6271 38.1508 30.8723 37.8869C31.1176 37.6231 31.4174 37.4148 31.7717 37.2621C32.1327 37.1093 32.5415 37.033 32.998 37.033C33.4545 37.033 33.8598 37.1093 34.2141 37.2621C34.5684 37.4148 34.8681 37.6231 35.1134 37.8869C35.3587 38.1508 35.546 38.4528 35.6755 38.793C35.8049 39.1332 35.8697 39.4942 35.8697 39.8761C35.8697 40.251 35.8049 40.6086 35.6755 40.9488C35.546 41.289 35.3587 41.591 35.1134 41.8549C34.8681 42.1187 34.5684 42.327 34.2141 42.4797C33.8598 42.6325 33.4545 42.7088 32.998 42.7088ZM31.8023 39.8761C31.8023 40.1608 31.8534 40.4107 31.9556 40.6259C32.0646 40.8412 32.2077 41.0078 32.3848 41.1258C32.5619 41.2439 32.7663 41.3029 32.998 41.3029C33.2228 41.3029 33.4238 41.2439 33.6009 41.1258C33.7849 41.0009 33.928 40.8308 34.0302 40.6155C34.1323 40.4003 34.1834 40.1538 34.1834 39.8761C34.1834 39.5915 34.1323 39.3415 34.0302 39.1263C33.928 38.911 33.7849 38.7444 33.6009 38.6264C33.4238 38.5084 33.2228 38.4493 32.998 38.4493C32.7663 38.4493 32.5619 38.5084 32.3848 38.6264C32.2077 38.7444 32.0646 38.911 31.9556 39.1263C31.8534 39.3415 31.8023 39.5915 31.8023 39.8761ZM36.8329 40.4906V38.9909H39.9805V40.4906H36.8329ZM42.3533 42.6047V38.5951H40.7284V37.1371H45.6132V38.5951H43.9884V42.6047H42.3533ZM49.0348 42.7088C48.5782 42.7088 48.1727 42.6359 47.8187 42.4901C47.4643 42.3374 47.161 42.1326 46.9092 41.8757C46.6639 41.6188 46.4762 41.3237 46.3471 40.9905C46.2175 40.6502 46.1529 40.2961 46.1529 39.9282C46.1529 39.4005 46.2654 38.9214 46.4902 38.491C46.7215 38.0536 47.0523 37.7029 47.4815 37.4391C47.9107 37.1683 48.4282 37.033 49.0348 37.033C49.641 37.033 50.1553 37.1649 50.578 37.4287C51.0072 37.6925 51.3342 38.0397 51.559 38.4702C51.7839 38.8937 51.8963 39.3554 51.8963 39.8553C51.8963 39.9525 51.8893 40.0497 51.8758 40.1469C51.8689 40.2372 51.8619 40.317 51.8554 40.3864H47.8903C47.9107 40.6294 47.9753 40.8342 48.0844 41.0009C48.2001 41.1675 48.3464 41.2959 48.5239 41.3862C48.7008 41.4695 48.888 41.5112 49.0859 41.5112C49.3312 41.5112 49.5593 41.4521 49.7706 41.3341C49.9885 41.2161 50.1385 41.0564 50.2203 40.8551L51.6101 41.2508C51.4736 41.5355 51.2794 41.7889 51.0276 42.0111C50.7824 42.2263 50.4892 42.3964 50.1488 42.5214C49.8148 42.6464 49.4436 42.7088 49.0348 42.7088ZM47.8494 39.3658H50.1794C50.152 39.1367 50.0874 38.9388 49.9852 38.7722C49.883 38.5986 49.7465 38.4667 49.5765 38.3764C49.406 38.2792 49.2188 38.2306 49.0144 38.2306C48.803 38.2306 48.6121 38.2792 48.4421 38.3764C48.2786 38.4667 48.1457 38.5986 48.0435 38.7722C47.9413 38.9388 47.8763 39.1367 47.8494 39.3658ZM53.9546 37.1371L54.905 38.6784L55.0072 38.8763L55.1094 38.6784L56.0598 37.1371H57.746L55.9474 39.8553L57.7869 42.6047H56.1007L55.0991 41.0738L55.0072 40.8759L54.9152 41.0738L53.9137 42.6047H52.2275L54.067 39.8865L52.2684 37.1371H53.9546ZM58.5115 42.6047V37.1371H60.1466V39.1158H61.9759V37.1371H63.611V42.6047H61.9759V40.4906H60.1466V42.6047H58.5115ZM64.9214 42.6047V37.1371H66.5566V40.3864L68.6311 37.1371H70.1232V42.6047H68.488V39.4491L66.4237 42.6047H64.9214ZM74.3749 42.6047V40.7613C74.177 40.8516 73.9796 40.9176 73.7822 40.9592C73.5843 40.9939 73.353 41.0113 73.0873 41.0113C72.5354 41.0113 72.0923 40.8585 71.7587 40.553C71.4317 40.2406 71.2682 39.7893 71.2682 39.1992V37.1371H72.9033V38.9805C72.9033 39.2374 72.9609 39.4317 73.077 39.5637C73.1927 39.6886 73.3734 39.7511 73.6187 39.7511C73.7478 39.7511 73.8774 39.7407 74.007 39.7199C74.1431 39.6921 74.2658 39.6504 74.3749 39.5949V37.1371H76.01V42.6047H74.3749ZM79.8772 42.7088C79.421 42.7088 79.0155 42.6359 78.661 42.4901C78.3071 42.3374 78.0038 42.1326 77.7515 41.8757C77.5062 41.6188 77.319 41.3237 77.1894 40.9905C77.0603 40.6502 76.9953 40.2961 76.9953 39.9282C76.9953 39.4005 77.1077 38.9214 77.3325 38.491C77.5643 38.0536 77.8946 37.7029 78.3238 37.4391C78.753 37.1683 79.271 37.033 79.8772 37.033C80.4838 37.033 80.998 37.1649 81.4203 37.4287C81.8495 37.6925 82.1765 38.0397 82.4014 38.4702C82.6262 38.8937 82.7386 39.3554 82.7386 39.8553C82.7386 39.9525 82.7321 40.0497 82.7182 40.1469C82.7117 40.2372 82.7047 40.317 82.6977 40.3864H78.7326C78.753 40.6294 78.8181 40.8342 78.9268 41.0009C79.0429 41.1675 79.1892 41.2959 79.3662 41.3862C79.5436 41.4695 79.7308 41.5112 79.9283 41.5112C80.1735 41.5112 80.4021 41.4521 80.613 41.3341C80.8313 41.2161 80.9809 41.0564 81.0626 40.8551L82.4525 41.2508C82.3164 41.5355 82.1222 41.7889 81.87 42.0111C81.6247 42.2263 81.332 42.3964 80.9911 42.5214C80.6576 42.6464 80.2859 42.7088 79.8772 42.7088ZM78.6917 39.3658H81.0217C80.9948 39.1367 80.9298 38.9388 80.8276 38.7722C80.7254 38.5986 80.5893 38.4667 80.4188 38.3764C80.2488 38.2792 80.0611 38.2306 79.8567 38.2306C79.6458 38.2306 79.4549 38.2792 79.2844 38.3764C79.1209 38.4667 78.9881 38.5986 78.8859 38.7722C78.7837 38.9388 78.7191 39.1367 78.6917 39.3658ZM86.2076 42.7088C85.751 42.7088 85.3455 42.6325 84.9915 42.4797C84.6371 42.327 84.3338 42.1187 84.082 41.8549C83.8367 41.591 83.6491 41.289 83.5199 40.9488C83.3903 40.6086 83.3258 40.2476 83.3258 39.8657C83.3258 39.3658 83.4382 38.9006 83.663 38.4702C83.8943 38.0397 84.2251 37.6925 84.6543 37.4287C85.0835 37.1649 85.601 37.033 86.2076 37.033C86.8208 37.033 87.3383 37.1683 87.761 37.4391C88.1902 37.7029 88.5103 38.0501 88.7216 38.4806L87.1274 38.97C87.0252 38.8034 86.8924 38.675 86.7289 38.5847C86.5718 38.4944 86.3949 38.4493 86.1974 38.4493C85.9726 38.4493 85.7682 38.5084 85.5843 38.6264C85.4068 38.7444 85.2637 38.9076 85.1551 39.1158C85.0529 39.3241 85.0018 39.5741 85.0018 39.8657C85.0018 40.1503 85.0561 40.4003 85.1653 40.6155C85.274 40.8308 85.417 41.0009 85.5945 41.1258C85.7715 41.2439 85.9726 41.3029 86.1974 41.3029C86.3335 41.3029 86.4594 41.2821 86.5756 41.2404C86.6982 41.1918 86.8069 41.1258 86.9026 41.0425C87.0048 40.9592 87.0828 40.8655 87.1376 40.7613L88.7319 41.2612C88.6023 41.539 88.4151 41.7889 88.1698 42.0111C87.931 42.2263 87.6486 42.3964 87.3216 42.5214C86.9946 42.6464 86.6229 42.7088 86.2076 42.7088ZM89.6433 42.6047V37.1371H91.2682V39.095H91.6565L92.985 37.1371H94.7428L92.9033 39.7615L94.9369 42.6047H93.0668L91.6258 40.5426H91.2682V42.6047H89.6433ZM98.1988 42.7088C97.7426 42.7088 97.3339 42.6325 96.9725 42.4797C96.6185 42.327 96.3184 42.1187 96.0732 41.8549C95.8279 41.591 95.6407 41.289 95.5111 40.9488C95.3884 40.6086 95.3271 40.251 95.3271 39.8761C95.3271 39.4942 95.3884 39.1332 95.5111 38.793C95.6407 38.4528 95.8279 38.1508 96.0732 37.8869C96.3184 37.6231 96.6185 37.4148 96.9725 37.2621C97.3339 37.1093 97.7426 37.033 98.1988 37.033C98.6554 37.033 99.061 37.1093 99.4149 37.2621C99.7693 37.4148 100.069 37.6231 100.314 37.8869C100.559 38.1508 100.747 38.4528 100.876 38.793C101.006 39.1332 101.07 39.4942 101.07 39.8761C101.07 40.251 101.006 40.6086 100.876 40.9488C100.747 41.289 100.559 41.591 100.314 41.8549C100.069 42.1187 99.7693 42.327 99.4149 42.4797C99.061 42.6325 98.6554 42.7088 98.1988 42.7088ZM97.0031 39.8761C97.0031 40.1608 97.0542 40.4107 97.1564 40.6259C97.2656 40.8412 97.4086 41.0078 97.5856 41.1258C97.7631 41.2439 97.9675 41.3029 98.1988 41.3029C98.4236 41.3029 98.6248 41.2439 98.8017 41.1258C98.9857 41.0009 99.1288 40.8308 99.231 40.6155C99.3332 40.4003 99.3843 40.1538 99.3843 39.8761C99.3843 39.5915 99.3332 39.3415 99.231 39.1263C99.1288 38.911 98.9857 38.7444 98.8017 38.6264C98.6248 38.5084 98.4236 38.4493 98.1988 38.4493C97.9675 38.4493 97.7631 38.5084 97.5856 38.6264C97.4086 38.7444 97.2656 38.911 97.1564 39.1263C97.0542 39.3415 97.0031 39.5915 97.0031 39.8761ZM104.609 42.7088C104.153 42.7088 103.747 42.6359 103.393 42.4901C103.039 42.3374 102.736 42.1326 102.484 41.8757C102.238 41.6188 102.051 41.3237 101.921 40.9905C101.792 40.6502 101.727 40.2961 101.727 39.9282C101.727 39.4005 101.84 38.9214 102.065 38.491C102.296 38.0536 102.627 37.7029 103.056 37.4391C103.485 37.1683 104.003 37.033 104.609 37.033C105.215 37.033 105.73 37.1649 106.152 37.4287C106.582 37.6925 106.909 38.0397 107.133 38.4702C107.358 38.8937 107.471 39.3554 107.471 39.8553C107.471 39.9525 107.464 40.0497 107.45 40.1469C107.443 40.2372 107.437 40.317 107.43 40.3864H103.465C103.485 40.6294 103.55 40.8342 103.659 41.0009C103.774 41.1675 103.921 41.2959 104.098 41.3862C104.275 41.4695 104.463 41.5112 104.66 41.5112C104.906 41.5112 105.134 41.4521 105.345 41.3341C105.563 41.2161 105.713 41.0564 105.795 40.8551L107.184 41.2508C107.048 41.5355 106.854 41.7889 106.602 42.0111C106.357 42.2263 106.064 42.3964 105.723 42.5214C105.389 42.6464 105.018 42.7088 104.609 42.7088ZM103.424 39.3658H105.754C105.726 39.1367 105.662 38.9388 105.56 38.7722C105.457 38.5986 105.321 38.4667 105.151 38.3764C104.98 38.2792 104.793 38.2306 104.589 38.2306C104.377 38.2306 104.187 38.2792 104.016 38.3764C103.853 38.4667 103.72 38.5986 103.618 38.7722C103.516 38.9388 103.451 39.1367 103.424 39.3658ZM110.932 42.6047V37.1371H115.95V42.6047H114.315V38.5951H112.567V42.6047H110.932ZM120.635 42.7088C120.233 42.7088 119.882 42.6221 119.583 42.4485C119.283 42.268 119.048 42.0249 118.877 41.7195V44.823H117.242V37.1371H118.663V38.0223C118.86 37.7099 119.109 37.4669 119.409 37.2933C119.708 37.1197 120.06 37.033 120.461 37.033C120.822 37.033 121.153 37.1059 121.453 37.2517C121.759 37.3975 122.025 37.5988 122.25 37.8557C122.475 38.1126 122.648 38.4111 122.771 38.7513C122.894 39.0916 122.955 39.4595 122.955 39.8553C122.955 40.3968 122.856 40.8829 122.659 41.3133C122.461 41.7438 122.185 42.084 121.831 42.3339C121.483 42.5839 121.085 42.7088 120.635 42.7088ZM120.083 41.3029C120.26 41.3029 120.421 41.2647 120.564 41.1883C120.714 41.105 120.843 40.9974 120.952 40.8655C121.061 40.7335 121.143 40.5808 121.197 40.4072C121.259 40.2267 121.289 40.0393 121.289 39.8449C121.289 39.6435 121.255 39.4595 121.187 39.2929C121.126 39.1263 121.037 38.9805 120.921 38.8555C120.806 38.7236 120.669 38.6229 120.513 38.5535C120.356 38.484 120.186 38.4493 120.002 38.4493C119.892 38.4493 119.78 38.4667 119.664 38.5014C119.555 38.5361 119.45 38.5882 119.348 38.6576C119.252 38.7201 119.164 38.7965 119.082 38.8867C119 38.977 118.932 39.0812 118.877 39.1992V40.3239C118.952 40.5114 119.051 40.678 119.174 40.8238C119.296 40.9696 119.436 41.0876 119.593 41.1779C119.749 41.2612 119.913 41.3029 120.083 41.3029ZM126.507 42.7088C126.051 42.7088 125.645 42.6359 125.291 42.4901C124.937 42.3374 124.633 42.1326 124.381 41.8757C124.136 41.6188 123.949 41.3237 123.819 40.9905C123.69 40.6502 123.625 40.2961 123.625 39.9282C123.625 39.4005 123.737 38.9214 123.962 38.491C124.194 38.0536 124.524 37.7029 124.953 37.4391C125.383 37.1683 125.901 37.033 126.507 37.033C127.113 37.033 127.628 37.1649 128.05 37.4287C128.479 37.6925 128.806 38.0397 129.031 38.4702C129.256 38.8937 129.368 39.3554 129.368 39.8553C129.368 39.9525 129.362 40.0497 129.348 40.1469C129.341 40.2372 129.334 40.317 129.327 40.3864H125.362C125.383 40.6294 125.448 40.8342 125.556 41.0009C125.672 41.1675 125.819 41.2959 125.996 41.3862C126.173 41.4695 126.36 41.5112 126.558 41.5112C126.803 41.5112 127.032 41.4521 127.243 41.3341C127.461 41.2161 127.61 41.0564 127.692 40.8551L129.082 41.2508C128.946 41.5355 128.752 41.7889 128.499 42.0111C128.254 42.2263 127.962 42.3964 127.621 42.5214C127.287 42.6464 126.915 42.7088 126.507 42.7088ZM125.321 39.3658H127.651C127.624 39.1367 127.559 38.9388 127.457 38.7722C127.355 38.5986 127.219 38.4667 127.048 38.3764C126.878 38.2792 126.691 38.2306 126.486 38.2306C126.275 38.2306 126.084 38.2792 125.914 38.3764C125.75 38.4667 125.618 38.5986 125.515 38.7722C125.413 38.9388 125.349 39.1367 125.321 39.3658ZM129.925 43.9482V41.1571H130.088C130.211 41.1571 130.33 41.1258 130.446 41.0634C130.562 40.9939 130.664 40.8794 130.752 40.7197C130.841 40.56 130.912 40.3343 130.967 40.0427C131.028 39.7511 131.066 39.3797 131.079 38.9284L131.151 37.1371H135.382V41.1571H136.148V43.9482H134.718V42.6047H131.355V43.9482H129.925ZM132.071 41.1571H133.747V38.5222H132.582L132.551 39.1054C132.531 39.4873 132.5 39.8136 132.459 40.0844C132.425 40.3552 132.374 40.5773 132.306 40.7509C132.244 40.9176 132.166 41.0529 132.071 41.1571ZM137.151 42.6047V37.1371H142.169V42.6047H140.534V38.5951H138.786V42.6047H137.151ZM146.854 42.7088C146.452 42.7088 146.101 42.6221 145.802 42.4485C145.502 42.268 145.267 42.0249 145.096 41.7195V44.823H143.461V37.1371H144.882V38.0223C145.079 37.7099 145.328 37.4669 145.628 37.2933C145.927 37.1197 146.279 37.033 146.68 37.033C147.041 37.033 147.372 37.1059 147.672 37.2517C147.978 37.3975 148.244 37.5988 148.469 37.8557C148.694 38.1126 148.867 38.4111 148.99 38.7513C149.113 39.0916 149.174 39.4595 149.174 39.8553C149.174 40.3968 149.075 40.8829 148.878 41.3133C148.68 41.7438 148.404 42.084 148.05 42.3339C147.702 42.5839 147.304 42.7088 146.854 42.7088ZM146.302 41.3029C146.479 41.3029 146.639 41.2647 146.783 41.1883C146.933 41.105 147.062 40.9974 147.171 40.8655C147.28 40.7335 147.362 40.5808 147.416 40.4072C147.478 40.2267 147.508 40.0393 147.508 39.8449C147.508 39.6435 147.474 39.4595 147.406 39.2929C147.345 39.1263 147.256 38.9805 147.14 38.8555C147.025 38.7236 146.888 38.6229 146.731 38.5535C146.575 38.484 146.404 38.4493 146.221 38.4493C146.111 38.4493 145.999 38.4667 145.883 38.5014C145.774 38.5361 145.669 38.5882 145.566 38.6576C145.471 38.7201 145.383 38.7965 145.301 38.8867C145.219 38.977 145.151 39.0812 145.096 39.1992V40.3239C145.171 40.5114 145.27 40.678 145.393 40.8238C145.515 40.9696 145.655 41.0876 145.812 41.1779C145.968 41.2612 146.132 41.3029 146.302 41.3029ZM150.171 42.6047V37.1371H151.806V40.3864L153.88 37.1371H155.372V42.6047H153.737V39.4491L151.673 42.6047H150.171ZM156.446 42.6047L157.713 40.5114C157.407 40.4072 157.168 40.2267 156.998 39.9698C156.827 39.706 156.742 39.3658 156.742 38.9492C156.742 38.5743 156.824 38.2515 156.988 37.9807C157.158 37.7029 157.389 37.4912 157.683 37.3454C157.982 37.1926 158.323 37.1163 158.705 37.1163H161.454V42.6047H159.818V40.803H159.277L158.234 42.6047H156.446ZM158.929 39.6262H159.818V38.3764H158.95C158.745 38.3764 158.585 38.4355 158.469 38.5535C158.36 38.6646 158.306 38.8104 158.306 38.9909C158.306 39.1783 158.357 39.3311 158.459 39.4491C158.568 39.5671 158.725 39.6262 158.929 39.6262ZM163.957 42.6047V38.5951H162.332V37.1371H167.217V38.5951H165.592V42.6047H163.957ZM168.084 42.6047V37.1371H169.719V40.3864L171.793 37.1371H173.285V42.6047H171.65V39.4491L169.586 42.6047H168.084ZM177.139 42.7088C176.682 42.7088 176.276 42.6359 175.922 42.4901C175.568 42.3374 175.265 42.1326 175.013 41.8757C174.768 41.6188 174.58 41.3237 174.451 40.9905C174.321 40.6502 174.257 40.2961 174.257 39.9282C174.257 39.4005 174.369 38.9214 174.594 38.491C174.825 38.0536 175.156 37.7029 175.585 37.4391C176.014 37.1683 176.532 37.033 177.139 37.033C177.745 37.033 178.259 37.1649 178.682 37.4287C179.111 37.6925 179.438 38.0397 179.663 38.4702C179.888 38.8937 180 39.3554 180 39.8553C180 39.9525 179.993 40.0497 179.98 40.1469C179.973 40.2372 179.966 40.317 179.959 40.3864H175.994C176.014 40.6294 176.079 40.8342 176.188 41.0009C176.304 41.1675 176.45 41.2959 176.628 41.3862C176.805 41.4695 176.992 41.5112 177.19 41.5112C177.435 41.5112 177.663 41.4521 177.874 41.3341C178.092 41.2161 178.242 41.0564 178.324 40.8551L179.714 41.2508C179.577 41.5355 179.383 41.7889 179.131 42.0111C178.886 42.2263 178.593 42.3964 178.252 42.5214C177.918 42.6464 177.547 42.7088 177.139 42.7088ZM175.953 39.3658H178.283C178.256 39.1367 178.191 38.9388 178.089 38.7722C177.987 38.5986 177.85 38.4667 177.68 38.3764C177.51 38.2792 177.322 38.2306 177.118 38.2306C176.907 38.2306 176.716 38.2792 176.546 38.3764C176.382 38.4667 176.249 38.5986 176.147 38.7722C176.045 38.9388 175.98 39.1367 175.953 39.3658Z" fill="black"/>
<path fill-rule="evenodd" clip-rule="evenodd" d="M161.09 8.28424C173.118 9.39854 178.665 19.1721 179.904 24.616H168.291C166.278 21.6179 160.626 15.6217 154.123 15.6217C153.751 13.5388 152.729 10.8223 152.265 9.72437C155.503 8.20888 159.042 8.09451 161.09 8.28424ZM164.574 24.616H136.471C138.019 22.4858 142.881 18.2253 149.942 18.2253C157.003 18.2253 162.639 22.4858 164.574 24.616ZM130.432 24.616H87.6962C87.5415 21.7757 89.2756 15.1009 97.4511 11.1246C103.624 8.12206 109.391 8.70915 113.013 9.89011C112.47 11.1695 111.387 14.2962 111.387 16.5684C108.367 17.5152 101.771 20.4028 99.5415 24.3793H103.258C105.116 22.4068 110.365 18.5093 116.496 18.6987C122.628 18.888 128.342 22.7225 130.432 24.616Z" fill="url(#paint0_radial_492_15756)"/>
<path d="M149.942 11.1246C148.548 7.41638 143.113 0 132.522 0C121.931 0 116.961 7.41638 115.8 11.1246C115.242 11.8821 114.484 14.7538 114.174 16.0951C125.88 16.0951 131.748 21.3023 133.219 23.9059L135.774 21.3023C139.258 17.3335 144.552 15.9455 151.336 15.6742C151.221 14.8677 150.782 12.8288 149.942 11.1246Z" fill="url(#paint1_radial_492_15756)"/>
<defs>
<radialGradient id="paint0_radial_492_15756" cx="0" cy="0" r="1" gradientUnits="userSpaceOnUse" gradientTransform="translate(129.958 14.6749) rotate(-156.745) scale(20.9823 28.2857)">
<stop stop-color="#F69F01"/>
<stop offset="1" stop-color="#EC6907"/>
</radialGradient>
<radialGradient id="paint1_radial_492_15756" cx="0" cy="0" r="1" gradientUnits="userSpaceOnUse" gradientTransform="translate(129.958 14.6749) rotate(-156.745) scale(20.9823 28.2857)">
<stop stop-color="#F69F01"/>
<stop offset="1" stop-color="#EC6907"/>
</radialGradient>
</defs>
</svg>
