<svg width="22" height="22" viewBox="0 0 22 22" fill="none" xmlns="http://www.w3.org/2000/svg">
<path d="M11.9074 5.08951C13.1572 5.29899 14.2926 5.88932 15.199 6.79387C16.1054 7.69842 16.6922 8.83148 16.9069 10.0788M12.0982 1C14.3213 1.3761 16.3487 2.42823 17.9612 4.03261C19.5736 5.64175 20.6231 7.66508 21 9.8836M19.2635 18.7101C19.2635 18.7101 18.0566 19.8955 17.7608 20.243C17.279 20.7572 16.7113 21 15.9671 21C15.8955 21 15.8192 21 15.7476 20.9952C14.3308 20.9048 13.0141 20.3525 12.0266 19.8812C9.3265 18.5768 6.95556 16.7248 4.98533 14.3778C3.35859 12.4211 2.27091 10.612 1.55056 8.6696C1.1069 7.48417 0.944704 6.56058 1.01626 5.68936C1.06397 5.13235 1.27864 4.67055 1.67459 4.27541L3.30134 2.65198C3.5351 2.43299 3.78316 2.31397 4.02646 2.31397C4.327 2.31397 4.5703 2.49488 4.72295 2.64722C4.72773 2.65198 4.7325 2.65675 4.73727 2.66151C5.02827 2.93287 5.30496 3.21376 5.59596 3.51368C5.74384 3.66603 5.8965 3.81837 6.04916 3.97548L7.35151 5.27517C7.85719 5.77981 7.85719 6.24637 7.35151 6.75101C7.21317 6.88907 7.07959 7.02713 6.94125 7.16043C6.54052 7.56986 6.85531 7.25571 6.44028 7.62705C6.43074 7.63657 6.4212 7.64133 6.41643 7.65086C6.00616 8.06028 6.08249 8.46019 6.16836 8.73155C6.17313 8.74583 6.1779 8.76012 6.18267 8.7744C6.52138 9.59325 6.99843 10.3645 7.72355 11.2833L7.72832 11.2881C9.04498 12.9067 10.4332 14.1684 11.9645 15.1348C12.1601 15.2586 12.3605 15.3585 12.5513 15.4538C12.723 15.5395 12.8852 15.6204 13.0236 15.7061C13.0427 15.7156 13.0618 15.7299 13.0808 15.7394C13.243 15.8203 13.3957 15.8584 13.5531 15.8584C13.9491 15.8584 14.1971 15.6109 14.2782 15.5299L15.2133 14.5968C15.3755 14.4349 15.6331 14.2397 15.9337 14.2397C16.2294 14.2397 16.4727 14.4254 16.6206 14.5872C16.6254 14.592 16.6254 14.592 16.6302 14.5968L19.2587 17.2199C19.7501 17.7055 19.2635 18.7101 19.2635 18.7101Z" stroke="white" stroke-width="2" stroke-linecap="round" stroke-linejoin="round"/>
</svg>
