<svg width="23" height="23" viewBox="0 0 23 23" fill="none" xmlns="http://www.w3.org/2000/svg">
<path d="M10.4947 2.2042C10.8915 1.1318 12.4083 1.1318 12.8051 2.2042L14.7802 7.54184C14.905 7.879 15.1708 8.14483 15.508 8.26959L20.8456 10.2447C21.918 10.6415 21.918 12.1583 20.8456 12.5551L15.508 14.5302C15.1708 14.655 14.905 14.9208 14.7802 15.258L12.8051 20.5956C12.4083 21.668 10.8915 21.668 10.4947 20.5956L8.51959 15.258C8.39483 14.9208 8.129 14.655 7.79184 14.5302L2.4542 12.5551C1.3818 12.1583 1.3818 10.6415 2.4542 10.2447L7.79184 8.26959C8.129 8.14483 8.39483 7.879 8.51959 7.54184L10.4947 2.2042Z" stroke="white" stroke-width="2" stroke-linejoin="round"/>
</svg>
