<svg width="23" height="22" viewBox="0 0 23 22" fill="none" xmlns="http://www.w3.org/2000/svg">
<path d="M12.1074 5.08951C13.3572 5.29899 14.4926 5.88932 15.399 6.79387C16.3054 7.69842 16.8922 8.83148 17.1069 10.0788M12.2982 1C14.5213 1.3761 16.5487 2.42823 18.1612 4.03261C19.7736 5.64175 20.8231 7.66508 21.2 9.8836M19.4635 18.7101C19.4635 18.7101 18.2565 19.8955 17.9608 20.243C17.479 20.7572 16.9113 21 16.1671 21C16.0955 21 16.0192 21 15.9476 20.9952C14.5308 20.9048 13.2141 20.3525 12.2266 19.8812C9.5265 18.5768 7.15555 16.7248 5.18533 14.3778C3.55858 12.4211 2.47091 10.612 1.75056 8.6696C1.3069 7.48417 1.1447 6.56058 1.21626 5.68936C1.26396 5.13235 1.47864 4.67055 1.87459 4.27541L3.50134 2.65198C3.73509 2.43299 3.98316 2.31397 4.22646 2.31397C4.527 2.31397 4.77029 2.49488 4.92295 2.64722C4.92772 2.65198 4.93249 2.65675 4.93726 2.66151C5.22826 2.93287 5.50495 3.21376 5.79596 3.51368C5.94384 3.66603 6.0965 3.81837 6.24916 3.97548L7.55151 5.27517C8.05718 5.77981 8.05718 6.24637 7.55151 6.75101C7.41316 6.88907 7.27959 7.02713 7.14124 7.16043C6.74052 7.56986 7.05531 7.25571 6.64028 7.62705C6.63073 7.63657 6.62119 7.64133 6.61642 7.65086C6.20616 8.06028 6.28249 8.46019 6.36836 8.73155C6.37313 8.74583 6.3779 8.76012 6.38267 8.7744C6.72137 9.59325 7.19843 10.3645 7.92354 11.2833L7.92832 11.2881C9.24498 12.9067 10.6332 14.1684 12.1645 15.1348C12.3601 15.2586 12.5605 15.3585 12.7513 15.4538C12.923 15.5395 13.0852 15.6204 13.2236 15.7061C13.2427 15.7156 13.2618 15.7299 13.2808 15.7394C13.443 15.8203 13.5957 15.8584 13.7531 15.8584C14.1491 15.8584 14.3971 15.6109 14.4782 15.5299L15.4133 14.5968C15.5755 14.4349 15.8331 14.2397 16.1337 14.2397C16.4294 14.2397 16.6727 14.4254 16.8206 14.5872C16.8254 14.592 16.8254 14.592 16.8302 14.5968L19.4587 17.2199C19.9501 17.7055 19.4635 18.7101 19.4635 18.7101Z" stroke="white" stroke-width="2" stroke-linecap="round" stroke-linejoin="round"/>
</svg>
